<svg width="53" height="53" viewBox="0 0 53 53" fill="none" xmlns="http://www.w3.org/2000/svg">
<path d="M42.3125 26.5C41.1688 26.5 40.0719 26.0456 39.2631 25.2369C38.4544 24.4281 38 23.3312 38 22.1875C38 21.0438 38.4544 19.9469 39.2631 19.1381C40.0719 18.3294 41.1688 17.875 42.3125 17.875C43.4562 17.875 44.5531 18.3294 45.3619 19.1381C46.1706 19.9469 46.625 21.0438 46.625 22.1875C46.625 23.3312 46.1706 24.4281 45.3619 25.2369C44.5531 26.0456 43.4562 26.5 42.3125 26.5ZM33.6875 15C32.5438 15 31.4469 14.5456 30.6381 13.7369C29.8294 12.9281 29.375 11.8312 29.375 10.6875C29.375 9.54375 29.8294 8.44685 30.6381 7.6381C31.4469 6.82935 32.5438 6.375 33.6875 6.375C34.8312 6.375 35.9281 6.82935 36.7369 7.6381C37.5457 8.44685 38 9.54375 38 10.6875C38 11.8312 37.5457 12.9281 36.7369 13.7369C35.9281 14.5456 34.8312 15 33.6875 15ZM19.3125 15C18.1688 15 17.0719 14.5456 16.2631 13.7369C15.4544 12.9281 15 11.8312 15 10.6875C15 9.54375 15.4544 8.44685 16.2631 7.6381C17.0719 6.82935 18.1688 6.375 19.3125 6.375C20.4562 6.375 21.5531 6.82935 22.3619 7.6381C23.1706 8.44685 23.625 9.54375 23.625 10.6875C23.625 11.8312 23.1706 12.9281 22.3619 13.7369C21.5531 14.5456 20.4562 15 19.3125 15ZM10.6875 26.5C9.54375 26.5 8.44685 26.0456 7.6381 25.2369C6.82935 24.4281 6.375 23.3312 6.375 22.1875C6.375 21.0438 6.82935 19.9469 7.6381 19.1381C8.44685 18.3294 9.54375 17.875 10.6875 17.875C11.8312 17.875 12.9281 18.3294 13.7369 19.1381C14.5456 19.9469 15 21.0438 15 22.1875C15 23.3312 14.5456 24.4281 13.7369 25.2369C12.9281 26.0456 11.8312 26.5 10.6875 26.5ZM26.5 0.625C19.6375 0.625 13.0561 3.35111 8.20361 8.20361C3.35111 13.0561 0.625 19.6375 0.625 26.5C0.625 33.3625 3.35111 39.9439 8.20361 44.7964C13.0561 49.6489 19.6375 52.375 26.5 52.375C27.6437 52.375 28.7406 51.9206 29.5494 51.1119C30.3581 50.3031 30.8125 49.2062 30.8125 48.0625C30.8125 46.9412 30.3812 45.935 29.6912 45.1875C29.03 44.4113 28.5987 43.405 28.5987 42.3125C28.5987 41.1688 29.0531 40.0719 29.8619 39.2631C30.6706 38.4544 31.7675 38 32.9112 38H38C41.8125 38 45.4688 36.4855 48.1647 33.7897C50.8605 31.0938 52.375 27.4375 52.375 23.625C52.375 10.9175 40.7887 0.625 26.5 0.625Z" fill="#DF4A3A"/>
</svg>
