<svg width="52" height="57" viewBox="0 0 52 57" fill="none" xmlns="http://www.w3.org/2000/svg">
<path d="M49.8633 0.754909C49.2856 0.358102 48.6195 0.108654 47.9233 0.0283183C47.2271 -0.0520176 46.5217 0.0391981 45.8688 0.29401C42.0873 1.76565 34.4515 4.23456 25.875 4.23456C17.2985 4.23456 9.66 1.76565 5.87309 0.29401C5.2197 0.0403765 4.51434 -0.0501824 3.81807 0.0301742C3.12181 0.110531 2.45562 0.359381 1.87718 0.75518C1.29875 1.15098 0.8255 1.6818 0.49841 2.30168C0.17132 2.92157 0.000246434 3.61183 0 4.31272V19.3445C0 29.0045 2.60098 38.1173 7.32586 44.9985C12.2205 52.1303 18.8079 56.0492 25.875 56.0492C32.9421 56.0492 39.5295 52.1222 44.4241 44.9985C49.149 38.1227 51.75 29.0099 51.75 19.3499V4.31272C51.7487 3.61094 51.5762 2.92006 51.2474 2.30006C50.9186 1.68006 50.4435 1.14966 49.8633 0.754909ZM12.3984 27.3118C12.2096 27.5242 11.9808 27.6973 11.7251 27.8212C11.4693 27.9452 11.1917 28.0175 10.908 28.0342C10.335 28.0678 9.77221 27.8724 9.3433 27.4911C8.9144 27.1097 8.65456 26.5736 8.62094 26.0006C8.58733 25.4277 8.78269 24.8648 9.16406 24.4359C10.7139 22.7163 13.5251 21.5627 16.1719 21.5627C18.8187 21.5627 21.6299 22.7163 23.1797 24.4359C23.3685 24.6483 23.5137 24.8958 23.6069 25.1643C23.7001 25.4327 23.7395 25.7169 23.7228 26.0006C23.7062 26.2843 23.6338 26.5619 23.5099 26.8177C23.3859 27.0734 23.2128 27.3022 23.0004 27.4911C22.7881 27.6799 22.5406 27.8251 22.2721 27.9182C22.0037 28.0114 21.7195 28.0508 21.4358 28.0342C21.1521 28.0175 20.8744 27.9452 20.6187 27.8212C20.363 27.6973 20.1341 27.5242 19.9453 27.3118C19.223 26.5032 17.56 25.8752 16.1719 25.8752C14.7838 25.8752 13.11 26.5059 12.3984 27.3118ZM36.7883 40.2116C35.4499 41.7996 33.7808 43.0761 31.8976 43.9518C30.0144 44.8275 27.9626 45.2812 25.8858 45.2812C23.809 45.2812 21.7572 44.8275 19.874 43.9518C17.9908 43.0761 16.3216 41.7996 14.9832 40.2116C14.779 40.0001 14.6202 39.7491 14.5165 39.474C14.4128 39.1989 14.3665 38.9055 14.3804 38.6118C14.3943 38.3181 14.4681 38.0304 14.5973 37.7663C14.7265 37.5022 14.9083 37.2673 15.1316 37.0761C15.3548 36.8848 15.6149 36.7412 15.8957 36.6542C16.1765 36.5671 16.4721 36.5384 16.7645 36.5698C17.0568 36.6011 17.3396 36.692 17.5955 36.8367C17.8514 36.9814 18.0751 37.1769 18.2527 37.4112C19.1859 38.5253 20.352 39.4213 21.669 40.0361C22.9859 40.6509 24.4216 40.9696 25.875 40.9696C27.3284 40.9696 28.7641 40.6509 30.081 40.0361C31.398 39.4213 32.5641 38.5253 33.4973 37.4112C33.8687 36.9762 34.3976 36.7065 34.9678 36.6615C35.538 36.6166 36.1027 36.7999 36.5377 37.1713C36.9726 37.5426 37.2423 38.0716 37.2873 38.6418C37.3323 39.2119 37.1489 39.7766 36.7775 40.2116H36.7883ZM42.408 27.4924C42.197 27.6813 41.9507 27.8268 41.6834 27.9205C41.416 28.0142 41.1329 28.0544 40.85 28.0386C40.5672 28.0228 40.2902 27.9515 40.0349 27.8286C39.7797 27.7058 39.5511 27.5338 39.3623 27.3226C38.64 26.514 36.977 25.886 35.5889 25.886C34.2008 25.886 32.527 26.5167 31.8155 27.3226C31.6259 27.5357 31.3963 27.7093 31.1396 27.8337C30.883 27.958 30.6043 28.0306 30.3196 28.0472C30.0349 28.0638 29.7497 28.0242 29.4804 27.9307C29.211 27.8371 28.9626 27.6914 28.7495 27.5018C28.5365 27.3123 28.3628 27.0826 28.2385 26.826C28.1142 26.5693 28.0416 26.2907 28.025 26.006C28.0083 25.7213 28.0479 25.4361 28.1415 25.1667C28.2351 24.8973 28.3808 24.649 28.5703 24.4359C30.1093 22.7163 32.9205 21.5627 35.5781 21.5627C38.2357 21.5627 41.0361 22.7163 42.5859 24.4359C42.776 24.6478 42.9223 24.8952 43.0163 25.1638C43.1103 25.4325 43.1502 25.7171 43.1336 26.0012C43.1171 26.2854 43.0445 26.5634 42.9199 26.8194C42.7954 27.0753 42.6214 27.304 42.408 27.4924Z" fill="#412828"/>
</svg>
