<svg width="69" height="72" viewBox="0 0 69 72" fill="none" xmlns="http://www.w3.org/2000/svg">
<path d="M10.6593 55.2879C8.0046 65.1258 6.6705 68.4051 0 68.4051C22.6662 79.8826 26.6685 60.2069 26.6685 60.2069L19.998 52.0087C19.998 52.0087 13.3275 50.3856 10.6593 55.2879ZM67.9987 1.22948C66.1121 -1.08921 62.8779 0.58356 62.8779 0.58356C58.1614 1.7429 32.0049 34.0057 32.0049 34.0057L41.3436 45.4832C41.3436 45.4832 67.5944 13.3363 68.5377 7.53961C68.5243 7.52305 69.8853 3.5316 67.9987 1.22948ZM22.6662 48.7459L29.3367 56.9441L38.6754 48.7459L29.3367 37.2685L22.6662 48.7459Z" fill="#772820"/>
</svg>
