<svg width="30" height="30" viewBox="0 0 30 30" fill="none" xmlns="http://www.w3.org/2000/svg">
<g id="basil:viber-solid">
<path id="Vector" fill-rule="evenodd" clip-rule="evenodd" d="M20.8452 3.28481C16.9124 2.40571 12.8341 2.40571 8.90141 3.28481L8.47766 3.37856C7.37143 3.62589 6.35542 4.17504 5.5425 4.96502C4.72957 5.755 4.15155 6.75487 3.87266 7.85356C2.87578 11.7817 2.87578 15.8967 3.87266 19.8248C4.13863 20.8726 4.67692 21.8315 5.43295 22.6042C6.18898 23.377 7.13589 23.936 8.17766 24.2248L8.75891 27.6948C8.77746 27.805 8.82522 27.9082 8.8972 27.9937C8.96918 28.0791 9.06276 28.1437 9.16819 28.1807C9.27362 28.2178 9.38704 28.2258 9.49665 28.2041C9.60626 28.1824 9.70805 28.1317 9.79141 28.0573L13.2052 25.0036C15.7678 25.1599 18.3396 24.955 20.8452 24.3948L21.2702 24.3011C22.3764 24.0537 23.3924 23.5046 24.2053 22.7146C25.0183 21.9246 25.5963 20.9248 25.8752 19.8261C26.8719 15.8979 26.8719 11.783 25.8752 7.85481C25.5962 6.75596 25.018 5.75598 24.2048 4.96599C23.3916 4.17599 22.3754 3.62693 21.2689 3.37981L20.8452 3.28481ZM9.95641 7.75231C9.72409 7.7185 9.4872 7.76526 9.28516 7.88481H9.26766C8.79891 8.15981 8.37641 8.50606 8.01641 8.91356C7.71641 9.25981 7.55391 9.60981 7.51141 9.94731C7.48641 10.1473 7.50391 10.3498 7.56266 10.5411L7.58516 10.5536C7.92266 11.5448 8.36266 12.4986 8.90016 13.3961C9.59322 14.6567 10.4461 15.8226 11.4377 16.8648L11.4677 16.9073L11.5152 16.9423L11.5439 16.9761L11.5789 17.0061C12.6248 18.0006 13.7934 18.8575 15.0564 19.5561C16.5002 20.3423 17.3764 20.7136 17.9027 20.8686V20.8761C18.0564 20.9236 18.1964 20.9448 18.3377 20.9448C18.7858 20.9117 19.21 20.7295 19.5427 20.4273C19.9489 20.0673 20.2927 19.6436 20.5602 19.1723V19.1636C20.8114 18.6886 20.7264 18.2411 20.3639 17.9373C19.6358 17.3011 18.8484 16.736 18.0127 16.2498C17.4527 15.9461 16.8839 16.1298 16.6539 16.4373L16.1627 17.0573C15.9102 17.3648 15.4527 17.3223 15.4527 17.3223L15.4402 17.3298C12.0264 16.4586 11.1152 13.0023 11.1152 13.0023C11.1152 13.0023 11.0727 12.5323 11.3889 12.2923L12.0039 11.7973C12.2989 11.5573 12.5039 10.9898 12.1877 10.4298C11.7047 9.59327 11.1407 8.80616 10.5039 8.07981C10.365 7.90887 10.1702 7.79244 9.95391 7.75106L9.95641 7.75231ZM15.7239 6.24981C15.5581 6.24981 15.3992 6.31566 15.282 6.43287C15.1648 6.55008 15.0989 6.70905 15.0989 6.87481C15.0989 7.04057 15.1648 7.19954 15.282 7.31675C15.3992 7.43396 15.5581 7.49981 15.7239 7.49981C17.3052 7.49981 18.6177 8.01606 19.6564 9.00606C20.1902 9.54731 20.6064 10.1886 20.8789 10.8911C21.1527 11.5948 21.2777 12.3461 21.2452 13.0986C21.2417 13.1806 21.2545 13.2626 21.2827 13.3397C21.3109 13.4169 21.3541 13.4877 21.4097 13.5482C21.5219 13.6703 21.6781 13.7429 21.8439 13.7498C22.0097 13.7568 22.1714 13.6976 22.2935 13.5853C22.4157 13.473 22.4882 13.3168 22.4952 13.1511C22.5339 12.2254 22.3803 11.3018 22.0439 10.4386C21.7061 9.57123 21.1938 8.78246 20.5389 8.12106L20.5264 8.10856C19.2377 6.87731 17.6064 6.24981 15.7239 6.24981ZM15.6814 8.30481C15.5156 8.30481 15.3567 8.37066 15.2395 8.48787C15.1223 8.60508 15.0564 8.76405 15.0564 8.92981C15.0564 9.09557 15.1223 9.25454 15.2395 9.37175C15.3567 9.48896 15.5156 9.55481 15.6814 9.55481H15.7027C16.8427 9.63606 17.6727 10.0161 18.2539 10.6398C18.8502 11.2823 19.1589 12.0811 19.1352 13.0686C19.1313 13.2343 19.1935 13.3948 19.3081 13.5147C19.4226 13.6346 19.58 13.7041 19.7458 13.7079C19.9115 13.7118 20.072 13.6496 20.1919 13.535C20.3118 13.4205 20.3813 13.2631 20.3852 13.0973C20.4152 11.8011 19.9977 10.6823 19.1702 9.78981V9.78731C18.3239 8.87981 17.1627 8.39981 15.7652 8.30606L15.7439 8.30356L15.6814 8.30481ZM15.6577 10.3986C15.574 10.3912 15.4897 10.4007 15.4099 10.4266C15.33 10.4525 15.2562 10.4943 15.1928 10.5494C15.1294 10.6044 15.0778 10.6717 15.041 10.7472C15.0042 10.8227 14.9829 10.9048 14.9786 10.9886C14.9742 11.0725 14.9868 11.1564 15.0155 11.2352C15.0443 11.3141 15.0887 11.3864 15.146 11.4478C15.2033 11.5091 15.2724 11.5583 15.3491 11.5924C15.4259 11.6265 15.5087 11.6447 15.5927 11.6461C16.1152 11.6736 16.4489 11.8311 16.6589 12.0423C16.8702 12.2548 17.0277 12.5961 17.0564 13.1298C17.058 13.2137 17.0764 13.2964 17.1106 13.373C17.1448 13.4496 17.1941 13.5185 17.2555 13.5757C17.3169 13.6328 17.3892 13.677 17.468 13.7057C17.5469 13.7343 17.6307 13.7468 17.7144 13.7423C17.7982 13.7379 17.8802 13.7166 17.9556 13.6798C18.031 13.643 18.0982 13.5913 18.1532 13.528C18.2082 13.4647 18.2499 13.3909 18.2758 13.3111C18.3017 13.2313 18.3112 13.1471 18.3039 13.0636C18.2639 12.3136 18.0289 11.6511 17.5477 11.1636C17.0639 10.6761 16.4052 10.4386 15.6577 10.3986Z" fill="#0038FF"/>
</g>
</svg>
