<svg width="69" height="69" viewBox="0 0 69 69" fill="none" xmlns="http://www.w3.org/2000/svg">
<path fill-rule="evenodd" clip-rule="evenodd" d="M35.9179 16.2602L34.4746 15.2396C32.415 13.7823 29.9539 12.9998 27.4309 13H25.6714C24.507 13 23.334 13.0719 22.2386 13.46C15.3875 15.8922 10.6754 24.7731 11.0175 44.9211C11.0865 48.9806 12.0352 53.4656 15.698 55.2165C16.9474 55.8172 18.3165 56.1278 19.7029 56.125C21.2611 56.1505 22.7919 55.7133 24.1016 54.8686C25.2804 54.0981 26.3154 53.0976 27.3504 52.0971C28.6269 50.8609 29.9034 49.6246 31.4444 48.8254C33.1233 47.9547 34.9868 47.5001 36.8781 47.5H42.6252C44.517 47.5 46.38 47.9542 48.059 48.8225C49.6 49.6246 50.8765 50.8609 52.1559 52.0971C53.1909 53.0976 54.2259 54.0981 55.3989 54.8686C56.5201 55.6046 57.972 56.125 59.8005 56.125C61.1868 56.1278 62.5559 55.8172 63.8054 55.2165C67.4681 53.4656 68.4169 48.9778 68.4859 44.9211C68.828 24.7731 64.1159 15.8922 57.2647 13.4629C56.1665 13.0719 54.9877 13 53.8291 13H52.0696C49.5462 13.0004 47.0851 13.784 45.0259 15.2425L43.5826 16.2602C42.462 17.0531 41.123 17.4789 39.7502 17.4789C38.3775 17.4789 37.0385 17.0531 35.9179 16.2602ZM53.4065 24.5C53.9784 24.5 54.5268 24.7272 54.9312 25.1316C55.3356 25.5359 55.5627 26.0844 55.5627 26.6562C55.5627 27.2281 55.3356 27.7766 54.9312 28.1809C54.5268 28.5853 53.9784 28.8125 53.4065 28.8125C52.8346 28.8125 52.2862 28.5853 51.8818 28.1809C51.4774 27.7766 51.2502 27.2281 51.2502 26.6562C51.2502 26.0844 51.4774 25.5359 51.8818 25.1316C52.2862 24.7272 52.8346 24.5 53.4065 24.5ZM26.8127 25.2188C27.3846 25.2188 27.9331 25.4459 28.3374 25.8503C28.7418 26.2547 28.969 26.8031 28.969 27.375V29.5312H31.1252C31.6971 29.5312 32.2456 29.7584 32.6499 30.1628C33.0543 30.5672 33.2815 31.1156 33.2815 31.6875C33.2815 32.2594 33.0543 32.8078 32.6499 33.2122C32.2456 33.6166 31.6971 33.8438 31.1252 33.8438H28.969V36C28.969 36.5719 28.7418 37.1203 28.3374 37.5247C27.9331 37.9291 27.3846 38.1562 26.8127 38.1562C26.2409 38.1562 25.6924 37.9291 25.288 37.5247C24.8837 37.1203 24.6565 36.5719 24.6565 36V33.8438H22.5002C21.9284 33.8438 21.3799 33.6166 20.9755 33.2122C20.5712 32.8078 20.344 32.2594 20.344 31.6875C20.344 31.1156 20.5712 30.5672 20.9755 30.1628C21.3799 29.7584 21.9284 29.5312 22.5002 29.5312H24.6565V27.375C24.6565 26.8031 24.8837 26.2547 25.288 25.8503C25.6924 25.4459 26.2409 25.2188 26.8127 25.2188ZM59.8752 30.9688C59.8752 31.5406 59.6481 32.0891 59.2437 32.4934C58.8393 32.8978 58.2909 33.125 57.719 33.125C57.1471 33.125 56.5987 32.8978 56.1943 32.4934C55.7899 32.0891 55.5627 31.5406 55.5627 30.9688C55.5627 30.3969 55.7899 29.8484 56.1943 29.4441C56.5987 29.0397 57.1471 28.8125 57.719 28.8125C58.2909 28.8125 58.8393 29.0397 59.2437 29.4441C59.6481 29.8484 59.8752 30.3969 59.8752 30.9688ZM49.094 33.125C49.6659 33.125 50.2143 32.8978 50.6187 32.4934C51.0231 32.0891 51.2502 31.5406 51.2502 30.9688C51.2502 30.3969 51.0231 29.8484 50.6187 29.4441C50.2143 29.0397 49.6659 28.8125 49.094 28.8125C48.5221 28.8125 47.9737 29.0397 47.5693 29.4441C47.1649 29.8484 46.9377 30.3969 46.9377 30.9688C46.9377 31.5406 47.1649 32.0891 47.5693 32.4934C47.9737 32.8978 48.5221 33.125 49.094 33.125ZM55.5627 35.2812C55.5627 34.7094 55.3356 34.1609 54.9312 33.7566C54.5268 33.3522 53.9784 33.125 53.4065 33.125C52.8346 33.125 52.2862 33.3522 51.8818 33.7566C51.4774 34.1609 51.2502 34.7094 51.2502 35.2812C51.2502 35.8531 51.4774 36.4016 51.8818 36.8059C52.2862 37.2103 52.8346 37.4375 53.4065 37.4375C53.9784 37.4375 54.5268 37.2103 54.9312 36.8059C55.3356 36.4016 55.5627 35.8531 55.5627 35.2812Z" fill="#B548E0"/>
</svg>
