<svg width="69" height="69" viewBox="0 0 69 69" fill="none" xmlns="http://www.w3.org/2000/svg">
<g clip-path="url(#clip0_1016_360)">
<g clip-path="url(#clip1_1016_360)">
<path d="M47.7059 49.8332H62.7709C61.5059 33.139 54.3184 22.7698 45.0993 16.6365L49.2968 7.47484C49.4236 7.18412 49.4764 6.86646 49.4503 6.55034C49.4242 6.23422 49.32 5.92952 49.1471 5.66357C48.9743 5.39762 48.7381 5.17872 48.4598 5.02652C48.1815 4.87432 47.8698 4.79357 47.5526 4.7915H21.2751C20.9579 4.79357 20.6462 4.87432 20.3679 5.02652C20.0896 5.17872 19.8534 5.39762 19.6805 5.66357C19.5077 5.92952 19.4035 6.23422 19.3774 6.55034C19.3513 6.86646 19.404 7.18412 19.5309 7.47484L21.8309 12.4582H41.2276L39.5026 16.2915H35.9568C37.0397 19.2034 37.8357 22.2141 38.3334 25.2807C38.6558 27.1829 38.8607 29.1032 38.9468 31.0307L35.9184 33.1582C35.9266 30.679 35.7214 28.2038 35.3051 25.7598C34.7755 22.5072 33.8619 19.3289 32.5834 16.2915H30.6668C28.8979 18.5265 27.3085 20.8977 25.9134 23.3832C24.7885 25.5152 23.8336 27.7326 23.0576 30.0148L20.4318 28.2707C21.1982 26.0649 22.1404 23.9241 23.2493 21.869C24.3697 19.9419 25.5983 18.0797 26.9293 16.2915H23.5751L23.7284 16.6173C13.5701 23.3832 5.84593 35.2665 5.84593 55.104C5.82003 55.521 5.87701 55.939 6.01359 56.3339C6.15016 56.7287 6.36363 57.0926 6.64164 57.4045C6.91966 57.7163 7.25671 57.97 7.63334 58.1509C8.00997 58.3317 8.4187 58.4362 8.83593 58.4582H24.1693C23.5109 57.7729 23.0563 56.9179 22.8564 55.9889C22.6565 55.0598 22.7193 54.0935 23.0376 53.1981C23.356 52.3028 23.9174 51.5137 24.6589 50.9194C25.4004 50.3251 26.2927 49.949 27.2359 49.8332C26.7769 49.0547 26.5322 48.1685 26.5268 47.2648C26.5268 45.8923 27.072 44.5761 28.0425 43.6056C29.013 42.6351 30.3293 42.0898 31.7018 42.0898H43.2018C44.5743 42.0898 45.8905 42.6351 46.861 43.6056C47.8315 44.5761 48.3768 45.8923 48.3768 47.2648C48.3866 48.1655 48.155 49.0524 47.7059 49.8332Z" fill="#9F8F02"/>
<path d="M41.3997 54.6252C41.3997 54.1168 41.1978 53.6293 40.8384 53.2699C40.4789 52.9104 39.9914 52.7085 39.4831 52.7085H27.9831C27.4747 52.7085 26.9872 52.9104 26.6278 53.2699C26.2683 53.6293 26.0664 54.1168 26.0664 54.6252C26.0664 55.1335 26.2683 55.621 26.6278 55.9805C26.9872 56.3399 27.4747 56.5418 27.9831 56.5418H39.4831C39.9914 56.5418 40.4789 56.3399 40.8384 55.9805C41.1978 55.621 41.3997 55.1335 41.3997 54.6252Z" fill="#9F8F02"/>
<path d="M43.2018 45.0415H31.7018C31.1935 45.0415 30.706 45.2434 30.3465 45.6029C29.9871 45.9623 29.7852 46.4498 29.7852 46.9582C29.7852 47.4665 29.9871 47.954 30.3465 48.3135C30.706 48.6729 31.1935 48.8748 31.7018 48.8748H43.2018C43.7102 48.8748 44.1977 48.6729 44.5571 48.3135C44.9166 47.954 45.1185 47.4665 45.1185 46.9582C45.1185 46.4498 44.9166 45.9623 44.5571 45.6029C44.1977 45.2434 43.7102 45.0415 43.2018 45.0415Z" fill="#9F8F02"/>
<path d="M42.1667 60.375H30.6667C30.1583 60.375 29.6708 60.5769 29.3114 60.9364C28.9519 61.2958 28.75 61.7833 28.75 62.2917C28.75 62.8 28.9519 63.2875 29.3114 63.647C29.6708 64.0064 30.1583 64.2083 30.6667 64.2083H42.1667C42.675 64.2083 43.1625 64.0064 43.522 63.647C43.8814 63.2875 44.0833 62.8 44.0833 62.2917C44.0833 61.7833 43.8814 61.2958 43.522 60.9364C43.1625 60.5769 42.675 60.375 42.1667 60.375Z" fill="#9F8F02"/>
<path d="M62.6751 60.375H49.2585C48.7501 60.375 48.2626 60.5769 47.9032 60.9364C47.5437 61.2958 47.3418 61.7833 47.3418 62.2917C47.3418 62.8 47.5437 63.2875 47.9032 63.647C48.2626 64.0064 48.7501 64.2083 49.2585 64.2083H62.6751C63.1835 64.2083 63.671 64.0064 64.0304 63.647C64.3899 63.2875 64.5918 62.8 64.5918 62.2917C64.5918 61.7833 64.3899 61.2958 64.0304 60.9364C63.671 60.5769 63.1835 60.375 62.6751 60.375Z" fill="#9F8F02"/>
<path d="M64.5921 52.7085H51.1755C50.6671 52.7085 50.1796 52.9104 49.8202 53.2699C49.4607 53.6293 49.2588 54.1168 49.2588 54.6252C49.2588 55.1335 49.4607 55.621 49.8202 55.9805C50.1796 56.3399 50.6671 56.5418 51.1755 56.5418H64.5921C65.1005 56.5418 65.588 56.3399 65.9474 55.9805C66.3069 55.621 66.5088 55.1335 66.5088 54.6252C66.5088 54.1168 66.3069 53.6293 65.9474 53.2699C65.588 52.9104 65.1005 52.7085 64.5921 52.7085Z" fill="#9F8F02"/>
</g>
</g>
<defs>
<clipPath id="clip0_1016_360">
<rect width="69" height="69" fill="white"/>
</clipPath>
<clipPath id="clip1_1016_360">
<rect width="69" height="69" fill="white"/>
</clipPath>
</defs>
</svg>
