<svg width="69" height="73" viewBox="0 0 69 73" fill="none" xmlns="http://www.w3.org/2000/svg">
<g clip-path="url(#clip0_1016_352)">
<g clip-path="url(#clip1_1016_352)">
<g clip-path="url(#clip2_1016_352)">
<g clip-path="url(#clip3_1016_352)">
<path d="M8.625 3.3125H4.3125V59.375C4.3125 60.5187 4.76685 61.6156 5.5756 62.4244C6.38435 63.2331 7.48125 63.6875 8.625 63.6875H64.6875V59.375H8.625V3.3125Z" fill="#B5A302"/>
<path d="M29.8339 34.0305L15.9778 47.8866L13.6444 45.5532L29.0104 30.1661L29.0116 30.1649C29.1655 30.0097 29.3487 29.8865 29.5505 29.8024C29.7524 29.7183 29.9689 29.675 30.1875 29.675C30.4061 29.675 30.6226 29.7183 30.8245 29.8024C31.0263 29.8865 31.2095 30.0097 31.3634 30.1649L31.3645 30.166L40.6148 39.4378L40.9683 39.7922L41.3223 39.4382L57.6882 23.0723L58.5418 22.2188H57.3347H50.0938V18.9062H64.1875V33H60.875V25.7591V24.5509L60.0212 25.4057L42.1459 43.3026L42.1447 43.3038C41.9907 43.4591 41.8075 43.5823 41.6057 43.6664C41.4039 43.7505 41.1874 43.7938 40.9688 43.7938C40.7501 43.7938 40.5336 43.7505 40.3318 43.6664C40.13 43.5823 39.9468 43.4591 39.7928 43.3038L39.7918 43.3028L30.5415 34.0309L30.1879 33.6765L29.8339 34.0305Z" fill="#B5A302" stroke="#B5A302"/>
</g>
</g>
</g>
</g>
<defs>
<clipPath id="clip0_1016_352">
<rect width="69" height="69" fill="white"/>
</clipPath>
<clipPath id="clip1_1016_352">
<rect width="69" height="69" fill="white" transform="translate(0 1)"/>
</clipPath>
<clipPath id="clip2_1016_352">
<rect width="69" height="69" fill="white" transform="translate(0 1)"/>
</clipPath>
<clipPath id="clip3_1016_352">
<rect width="69" height="69" fill="white" transform="translate(0 -1)"/>
</clipPath>
</defs>
</svg>
