<svg width="73" height="73" viewBox="0 0 73 73" fill="none" xmlns="http://www.w3.org/2000/svg">
<path d="M30.4173 48.6667V45.625H9.12565V57.7917C9.12565 61.1679 11.8327 63.875 15.209 63.875H57.7923C61.1686 63.875 63.8756 61.1679 63.8756 57.7917V45.625H42.584V48.6667H30.4173ZM60.834 21.2917H48.6673V15.2083L42.584 9.125H30.4173L24.334 15.2083V21.2917H12.1673C8.82148 21.2917 6.08398 24.0292 6.08398 27.375V36.5C6.08398 39.8763 8.79107 42.5833 12.1673 42.5833H30.4173V36.5H42.584V42.5833H60.834C64.1798 42.5833 66.9173 39.8458 66.9173 36.5V27.375C66.9173 24.0292 64.1798 21.2917 60.834 21.2917ZM42.584 21.2917H30.4173V15.2083H42.584V21.2917Z" fill="#E9D205"/>
</svg>
