<svg width="150" height="150" viewBox="0 0 150 150" fill="none" xmlns="http://www.w3.org/2000/svg">
<g id="material-symbols:action-key">
<path id="Vector" d="M135 143.75L115.781 124.688C113.906 125.833 111.902 126.694 109.769 127.269C107.635 127.844 105.421 128.129 103.125 128.125C96.25 128.125 90.3646 125.677 85.4688 120.781C80.5729 115.885 78.125 110 78.125 103.125C78.125 96.25 80.5729 90.3646 85.4688 85.4688C90.3646 80.5729 96.25 78.125 103.125 78.125C110 78.125 115.885 80.5729 120.781 85.4688C125.677 90.3646 128.125 96.25 128.125 103.125C128.125 105.521 127.812 107.787 127.188 109.925C126.562 112.062 125.677 114.067 124.531 115.937L143.75 135L135 143.75ZM34.375 128.125C27.5 128.125 21.6146 125.677 16.7187 120.781C11.8229 115.885 9.375 110 9.375 103.125C9.375 96.25 11.8229 90.3646 16.7187 85.4688C21.6146 80.5729 27.5 78.125 34.375 78.125C41.25 78.125 47.1354 80.5729 52.0312 85.4688C56.9271 90.3646 59.375 96.25 59.375 103.125C59.375 110 56.9271 115.885 52.0312 120.781C47.1354 125.677 41.25 128.125 34.375 128.125ZM103.125 115.625C106.562 115.625 109.506 114.4 111.956 111.95C114.406 109.5 115.629 106.558 115.625 103.125C115.625 99.6875 114.4 96.7438 111.95 94.2937C109.5 91.8438 106.558 90.6208 103.125 90.625C99.6875 90.625 96.7438 91.85 94.2937 94.3C91.8438 96.75 90.6208 99.6917 90.625 103.125C90.625 106.562 91.85 109.506 94.3 111.956C96.75 114.406 99.6917 115.629 103.125 115.625ZM34.375 59.375C27.5 59.375 21.6146 56.9271 16.7187 52.0312C11.8229 47.1354 9.375 41.25 9.375 34.375C9.375 27.5 11.8229 21.6146 16.7187 16.7187C21.6146 11.8229 27.5 9.375 34.375 9.375C41.25 9.375 47.1354 11.8229 52.0312 16.7187C56.9271 21.6146 59.375 27.5 59.375 34.375C59.375 41.25 56.9271 47.1354 52.0312 52.0312C47.1354 56.9271 41.25 59.375 34.375 59.375ZM103.125 59.375C96.25 59.375 90.3646 56.9271 85.4688 52.0312C80.5729 47.1354 78.125 41.25 78.125 34.375C78.125 27.5 80.5729 21.6146 85.4688 16.7187C90.3646 11.8229 96.25 9.375 103.125 9.375C110 9.375 115.885 11.8229 120.781 16.7187C125.677 21.6146 128.125 27.5 128.125 34.375C128.125 41.25 125.677 47.1354 120.781 52.0312C115.885 56.9271 110 59.375 103.125 59.375Z" fill="white"/>
</g>
</svg>
