<svg width="50" height="50" viewBox="0 0 50 50" fill="none" xmlns="http://www.w3.org/2000/svg">
<g clip-path="url(#clip0_1020_240)">
<path d="M43.1603 27.2083C43.7455 26.6223 44.0742 25.8281 44.0742 24.9999C44.0742 24.1718 43.7455 23.3775 43.1603 22.7916L31.377 11.002C30.7907 10.4158 29.9956 10.0864 29.1666 10.0864C28.3375 10.0864 27.5424 10.4158 26.9561 11.002C26.3699 11.5882 26.0406 12.3834 26.0406 13.2124C26.0406 14.0415 26.3699 14.8366 26.9561 15.4228L33.4061 21.8749H9.37489C8.54609 21.8749 7.75123 22.2042 7.16518 22.7902C6.57913 23.3763 6.24989 24.1711 6.24989 24.9999C6.24989 25.8287 6.57913 26.6236 7.16518 27.2096C7.75123 27.7957 8.54609 28.1249 9.37489 28.1249L33.4061 28.1249L26.9561 34.5749C26.6659 34.8652 26.4356 35.2098 26.2785 35.5891C26.1214 35.9683 26.0406 36.3748 26.0406 36.7853C26.0406 37.1959 26.1214 37.6023 26.2785 37.9816C26.4356 38.3609 26.6659 38.7055 26.9561 38.9958C27.2464 39.286 27.591 39.5163 27.9703 39.6734C28.3495 39.8305 28.756 39.9113 29.1666 39.9113C29.5771 39.9113 29.9836 39.8305 30.3628 39.6734C30.7421 39.5163 31.0867 39.286 31.377 38.9958L43.1603 27.2083Z" fill="black"/>
</g>
<defs>
<clipPath id="clip0_1020_240">
<rect width="50" height="50" fill="white" transform="matrix(0 1 -1 0 50 0)"/>
</clipPath>
</defs>
</svg>
