<svg width="67" height="67" viewBox="0 0 67 67" fill="none" xmlns="http://www.w3.org/2000/svg">
<path d="M10.05 58.625C10.05 60.9412 11.547 62.8125 13.4 62.8125H16.75C18.603 62.8125 20.1 60.9412 20.1 58.625V8.37499C20.1 6.05878 18.603 4.18749 16.75 4.18749H13.4C11.547 4.18749 10.05 6.05878 10.05 8.37499V16.75H6.7C4.84703 16.75 3.35 18.6213 3.35 20.9375V29.3125C1.49703 29.3125 0 31.1838 0 33.5C0 35.8162 1.49703 37.6875 3.35 37.6875V46.0625C3.35 48.3787 4.84703 50.25 6.7 50.25H10.05V58.625ZM56.95 58.625V50.25H60.3C62.153 50.25 63.65 48.3787 63.65 46.0625V37.6875C65.503 37.6875 67 35.8162 67 33.5C67 31.1838 65.503 29.3125 63.65 29.3125V20.9375C63.65 18.6213 62.153 16.75 60.3 16.75H56.95V8.37499C56.95 6.05878 55.453 4.18749 53.6 4.18749H50.25C48.397 4.18749 46.9 6.05878 46.9 8.37499V58.625C46.9 60.9412 48.397 62.8125 50.25 62.8125H53.6C55.453 62.8125 56.95 60.9412 56.95 58.625ZM43.55 37.6875V29.3125H23.45V37.6875H43.55Z" fill="#8E4D01"/>
</svg>
