<svg width="72" height="72" viewBox="0 0 72 72" fill="none" xmlns="http://www.w3.org/2000/svg">
<g clip-path="url(#clip0_1016_419)">
<g clip-path="url(#clip1_1016_419)">
<path d="M57.9131 36H9.91309V33H15.9131L18.9131 18H33.9131L36.9131 33H57.9131V36ZM37.5731 21L38.7731 27H63.9131V21H37.5731ZM63.9131 48C63.9131 50.3869 62.9649 52.6761 61.277 54.364C59.5892 56.0518 57.3 57 54.9131 57H12.9131C10.5261 57 8.23695 56.0518 6.54913 54.364C4.8613 52.6761 3.91309 50.3869 3.91309 48C3.91309 45.6131 4.8613 43.3239 6.54913 41.636C8.23695 39.9482 10.5261 39 12.9131 39H54.9131C57.3 39 59.5892 39.9482 61.277 41.636C62.9649 43.3239 63.9131 45.6131 63.9131 48ZM15.9131 48C15.9131 47.2044 15.597 46.4413 15.0344 45.8787C14.4718 45.3161 13.7087 45 12.9131 45C12.1174 45 11.3544 45.3161 10.7918 45.8787C10.2292 46.4413 9.91309 47.2044 9.91309 48C9.91309 48.7956 10.2292 49.5587 10.7918 50.1213C11.3544 50.6839 12.1174 51 12.9131 51C13.7087 51 14.4718 50.6839 15.0344 50.1213C15.597 49.5587 15.9131 48.7956 15.9131 48ZM36.9131 48C36.9131 47.2044 36.597 46.4413 36.0344 45.8787C35.4718 45.3161 34.7087 45 33.9131 45C33.1174 45 32.3544 45.3161 31.7918 45.8787C31.2292 46.4413 30.9131 47.2044 30.9131 48C30.9131 48.7956 31.2292 49.5587 31.7918 50.1213C32.3544 50.6839 33.1174 51 33.9131 51C34.7087 51 35.4718 50.6839 36.0344 50.1213C36.597 49.5587 36.9131 48.7956 36.9131 48ZM57.9131 48C57.9131 47.2044 57.597 46.4413 57.0344 45.8787C56.4718 45.3161 55.7087 45 54.9131 45C54.1174 45 53.3544 45.3161 52.7918 45.8787C52.2292 46.4413 51.9131 47.2044 51.9131 48C51.9131 48.7956 52.2292 49.5587 52.7918 50.1213C53.3544 50.6839 54.1174 51 54.9131 51C55.7087 51 56.4718 50.6839 57.0344 50.1213C57.597 49.5587 57.9131 48.7956 57.9131 48Z" fill="#462F01"/>
</g>
</g>
<defs>
<clipPath id="clip0_1016_419">
<rect width="72" height="72" fill="white"/>
</clipPath>
<clipPath id="clip1_1016_419">
<rect width="72" height="72" fill="white"/>
</clipPath>
</defs>
</svg>
