<svg width="50" height="50" viewBox="0 0 50 50" fill="none" xmlns="http://www.w3.org/2000/svg">
<g clip-path="url(#clip0_1020_244)">
<path d="M6.8397 22.7917C6.25449 23.3777 5.92578 24.1719 5.92578 25.0001C5.92578 25.8282 6.25449 26.6225 6.8397 27.2084L18.623 38.998C19.2093 39.5842 20.0044 39.9136 20.8334 39.9136C21.6625 39.9136 22.4576 39.5842 23.0439 38.998C23.6301 38.4118 23.9594 37.6166 23.9594 36.7876C23.9594 35.9585 23.6301 35.1634 23.0439 34.5772L16.5939 28.1251H40.6251C41.4539 28.1251 42.2488 27.7958 42.8348 27.2098C43.4209 26.6237 43.7501 25.8289 43.7501 25.0001C43.7501 24.1713 43.4209 23.3764 42.8348 22.7904C42.2488 22.2043 41.4539 21.8751 40.6251 21.8751L16.5939 21.8751L23.0439 15.4251C23.3341 15.1348 23.5644 14.7902 23.7215 14.4109C23.8786 14.0317 23.9594 13.6252 23.9594 13.2147C23.9594 12.8041 23.8786 12.3977 23.7215 12.0184C23.5644 11.6391 23.3341 11.2945 23.0439 11.0042C22.7536 10.714 22.409 10.4837 22.0297 10.3266C21.6505 10.1695 21.244 10.0887 20.8334 10.0887C20.4229 10.0887 20.0164 10.1695 19.6372 10.3266C19.2579 10.4837 18.9133 10.714 18.623 11.0042L6.8397 22.7917Z" fill="black"/>
</g>
<defs>
<clipPath id="clip0_1020_244">
<rect width="50" height="50" fill="white" transform="matrix(0 -1 1 0 0 50)"/>
</clipPath>
</defs>
</svg>
