<svg width="69" height="69" viewBox="0 0 69 69" fill="none" xmlns="http://www.w3.org/2000/svg">
<g clip-path="url(#clip0_1016_255)">
<g clip-path="url(#clip1_1016_255)">
<g clip-path="url(#clip2_1016_255)">
<path d="M15.333 38.4168V23.0835H9.58301C8.05801 23.0835 6.59548 23.6893 5.51714 24.7676C4.43881 25.846 3.83301 27.3085 3.83301 28.8335V63.3335C3.83586 63.6895 3.93779 64.0376 4.12736 64.3389C4.31694 64.6402 4.58667 64.8827 4.90634 65.0393C5.21431 65.1794 5.55386 65.2354 5.8905 65.2018C6.22714 65.1681 6.54887 65.0459 6.82301 64.8477L16.6938 57.5835H42.4538C43.1803 57.605 43.9034 57.4771 44.5784 57.2077C45.2534 56.9384 45.8659 56.5333 46.378 56.0176C46.8901 55.502 47.2908 54.8866 47.5554 54.2098C47.8201 53.5329 47.9429 52.8089 47.9163 52.0827V49.9168H26.833C23.783 49.9168 20.8579 48.7052 18.7013 46.5486C16.5446 44.3919 15.333 41.4668 15.333 38.4168Z" fill="#083A2F"/>
<path d="M57.4997 27.8748C55.2836 27.8801 53.0965 27.3717 51.11 26.3893C49.1236 25.4069 47.3919 23.9774 46.051 22.2131C44.7101 20.4487 43.7965 18.3975 43.3818 16.2206C42.9672 14.0437 43.0629 11.8002 43.6613 9.6665H26.833C25.308 9.6665 23.8455 10.2723 22.7671 11.3506C21.6888 12.429 21.083 13.8915 21.083 15.4165V38.4165C21.083 39.9415 21.6888 41.404 22.7671 42.4824C23.8455 43.5607 25.308 44.1665 26.833 44.1665H52.8038L61.9655 51.2773C62.2379 51.4787 62.5587 51.6043 62.8954 51.6413C63.2321 51.6784 63.5726 51.6255 63.8822 51.4882C64.2083 51.3328 64.484 51.0885 64.6773 50.7833C64.8706 50.4781 64.9737 50.1244 64.9747 49.7632V25.709C62.7316 27.1091 60.1438 27.8589 57.4997 27.8748Z" fill="#083A2F"/>
<path d="M57.5003 23.0832C62.7931 23.0832 67.0837 18.7926 67.0837 13.4998C67.0837 8.20711 62.7931 3.9165 57.5003 3.9165C52.2076 3.9165 47.917 8.20711 47.917 13.4998C47.917 18.7926 52.2076 23.0832 57.5003 23.0832Z" fill="#083A2F"/>
</g>
</g>
</g>
<defs>
<clipPath id="clip0_1016_255">
<rect width="69" height="69" fill="white"/>
</clipPath>
<clipPath id="clip1_1016_255">
<rect width="69" height="69" fill="white" transform="translate(0 2)"/>
</clipPath>
<clipPath id="clip2_1016_255">
<rect width="69" height="69" fill="white" transform="translate(0 2)"/>
</clipPath>
</defs>
</svg>
