<svg width="69" height="69" viewBox="0 0 69 69" fill="none" xmlns="http://www.w3.org/2000/svg">
<g clip-path="url(#clip0_1016_252)">
<g clip-path="url(#clip1_1016_252)">
<path d="M49.5938 34.5C51.3094 34.5 52.9547 35.1815 54.1678 36.3947C55.381 37.6078 56.0625 39.2531 56.0625 40.9688V43.125C56.0625 51.6249 48.0413 60.375 34.5 60.375C20.9587 60.375 12.9375 51.6249 12.9375 43.125V40.9688C12.9375 39.2531 13.619 37.6078 14.8322 36.3947C16.0453 35.1815 17.6906 34.5 19.4062 34.5H49.5938ZM34.5 6.46875C37.6453 6.46875 40.6618 7.71822 42.8858 9.94228C45.1099 12.1663 46.3594 15.1828 46.3594 18.3281C46.3594 21.4734 45.1099 24.4899 42.8858 26.714C40.6618 28.938 37.6453 30.1875 34.5 30.1875C31.3547 30.1875 28.3382 28.938 26.1142 26.714C23.8901 24.4899 22.6406 21.4734 22.6406 18.3281C22.6406 15.1828 23.8901 12.1663 26.1142 9.94228C28.3382 7.71822 31.3547 6.46875 34.5 6.46875Z" fill="#33A175"/>
</g>
</g>
<defs>
<clipPath id="clip0_1016_252">
<rect width="69" height="69" fill="white"/>
</clipPath>
<clipPath id="clip1_1016_252">
<rect width="69" height="69" fill="white"/>
</clipPath>
</defs>
</svg>
