<svg width="69" height="73" viewBox="0 0 69 73" fill="none" xmlns="http://www.w3.org/2000/svg">
<path d="M16.7461 5V10.1134C18.7975 11.5325 20.1155 14.2018 20.1155 17.1293C20.1155 18.9769 19.5898 20.7208 18.6873 22.1136C19.1542 22.2955 19.6449 22.4977 20.0551 22.6759L36.544 19.6055L37.3415 26.9963L22.2817 30.1254C22.1656 32.3169 21.9516 34.4732 21.569 37.0748H66.8794V5H16.7461ZM13.3772 11.4688C11.1408 11.4688 9.06445 13.8604 9.06445 17.1294C9.06445 20.3985 11.1408 22.7899 13.3772 22.7899C15.6137 22.7899 17.69 20.3985 17.69 17.1294C17.69 13.8604 15.6137 11.4688 13.3772 11.4688ZM34.4136 22.4695L19.7791 25.1945C17.8601 24.4395 19.1112 24.7855 16.8858 24.0467C15.8783 24.7837 14.6851 25.2154 13.3772 25.2154C12.2182 25.2154 11.1495 24.8754 10.2199 24.2855C9.0623 24.7658 7.84065 25.3758 6.75161 25.9908C5.00073 26.9797 3.5547 27.7712 3 28.1515V45.6998H5.69585V30.7405H8.12109V66.1841H12.1646V43.4085H14.5898V66.1841H18.0943V43.026L18.115 42.915C19.3972 36.0904 19.8115 32.4863 19.9291 28.1371L34.694 25.069L34.4136 22.4695ZM21.1859 39.5005C21.0576 40.2663 20.9176 41.0692 20.762 41.9258H64.8577V39.5005H21.1859ZM28.471 45.9688C26.2345 45.9688 24.1582 48.3604 24.1582 51.6294C24.1582 54.0819 25.3266 56.0403 26.8549 56.8658C27.3399 56.6418 27.8632 56.5011 28.4289 56.4815C29.0533 56.46 29.6391 56.5849 30.1879 56.8077C31.666 55.9516 32.7837 54.0275 32.7837 51.6294C32.7837 48.3604 30.7074 45.9688 28.471 45.9688ZM43.5647 45.9688C41.3283 45.9688 39.252 48.3604 39.252 51.6294C39.252 54.0819 40.4204 56.0403 41.9486 56.8658C42.4336 56.6418 42.9569 56.5011 43.5227 56.4815C44.147 56.46 44.7329 56.5849 45.2816 56.8077C46.7597 55.9516 47.8775 54.0275 47.8775 51.6294C47.8775 48.3604 45.8012 45.9688 43.5647 45.9688ZM58.6585 45.9688C56.422 45.9688 54.3457 48.3604 54.3457 51.6294C54.3457 54.0819 55.5141 56.0403 57.0424 56.8658C57.5274 56.6418 58.0507 56.5011 58.6164 56.4815C59.2408 56.46 59.8266 56.5849 60.3754 56.8077C61.8535 55.9516 62.9712 54.0275 62.9712 51.6294C62.9712 48.3604 60.8949 45.9688 58.6585 45.9688ZM28.513 58.9057C27.995 58.9236 27.3127 59.3006 26.5859 60.0896C25.8589 60.8787 25.1444 62.01 24.5475 63.1569C23.978 64.2512 23.5221 65.3347 23.1918 66.1841H34.6926C34.2829 65.3168 33.7306 64.2234 33.0575 63.1235C32.3435 61.9567 31.5062 60.8139 30.6764 60.0297C29.8467 59.2455 29.0862 58.8859 28.513 58.9057ZM43.6068 58.9057C43.0887 58.9236 42.4064 59.3006 41.6796 60.0896C40.9527 60.8787 40.2382 62.01 39.6413 63.1569C39.0718 64.2512 38.6159 65.3347 38.2855 66.1841H49.7863C49.3766 65.3168 48.8244 64.2234 48.1512 63.1235C47.4372 61.9567 46.5999 60.8139 45.7702 60.0297C44.9404 59.2455 44.1798 58.8859 43.6068 58.9057ZM58.7005 58.9057C58.1825 58.9236 57.5002 59.3006 56.7734 60.0896C56.0464 60.8787 55.3319 62.01 54.735 63.1569C54.1655 64.2512 53.7096 65.3347 53.3793 66.1841H64.8801C64.4704 65.3168 63.9181 64.2234 63.245 63.1235C62.531 61.9567 61.6937 60.8139 60.8639 60.0297C60.0342 59.2455 59.2735 58.8859 58.7005 58.9057Z" fill="#1D6C51"/>
</svg>
