<svg width="69" height="73" viewBox="0 0 69 73" fill="none" xmlns="http://www.w3.org/2000/svg">
<path d="M37.9736 34.3015L34.2202 30.5467C33.3605 29.6867 32.1953 29.2022 30.9793 29.1989C29.7633 29.1957 28.5955 29.6741 27.7313 30.5294L1.63598 54.6122C0.685775 55.5078 0.061892 56.6491 0.00439124 57.9271C-0.0232747 58.5609 0.0800135 59.1936 0.307808 59.7858C0.535602 60.3779 0.883011 60.9167 1.32835 61.3685L6.93467 67.0367C6.93765 67.0404 6.94103 67.0437 6.94473 67.0467C7.81108 67.9102 8.98327 68.3969 10.2065 68.4009H10.3761C11.654 68.3534 12.7983 67.754 13.7068 66.7952L37.9578 40.8192C38.3878 40.3928 38.7294 39.8858 38.963 39.3271C39.1967 38.7685 39.3177 38.1692 39.3191 37.5636C39.3206 36.9581 39.2025 36.3582 38.9716 35.7984C38.7407 35.2386 38.4015 34.7299 37.9736 34.3015ZM68.1385 26.7128L68.0939 26.6682L63.1675 21.7922C62.879 21.5046 62.5363 21.277 62.1593 21.1225C61.7823 20.9681 61.3784 20.8898 60.971 20.8923C60.3109 20.8929 59.6677 21.1011 59.1324 21.4874C59.1324 21.4256 59.141 21.3652 59.1454 21.312C59.2101 20.3777 59.3107 18.966 58.3979 17.6866C57.3126 16.2238 56.121 14.8429 54.8328 13.5552C54.8293 13.551 54.8255 13.5472 54.8213 13.5437C52.9065 11.6577 48.7392 8.10556 42.3551 5.50221C39.934 4.50855 37.3419 3.99822 34.7248 4C30.188 4 26.7379 6.04703 25.4169 7.2603C24.6688 7.97478 23.9866 8.75515 23.3785 9.59195C23.0879 9.99298 22.9346 10.4771 22.9412 10.9722C22.9479 11.4674 23.1141 11.9472 23.4153 12.3403C23.7165 12.7334 24.1365 13.0187 24.6129 13.154C25.0893 13.2892 25.5966 13.2671 26.0594 13.0909C26.4626 12.9402 26.8745 12.8139 27.2928 12.7128C28.1641 12.5285 29.0576 12.4728 29.945 12.5475C31.8411 12.7042 34.0837 13.6458 35.0755 14.4292C36.7574 15.7819 37.5668 17.6047 37.7005 20.336C37.7263 20.8851 36.5907 22.9436 34.8254 25.2925C34.4892 25.7358 34.325 26.286 34.3633 26.841C34.4016 27.3961 34.6399 27.9185 35.0339 28.3113L39.9804 33.2578C40.396 33.6745 40.9556 33.9159 41.5439 33.9325C42.1322 33.9491 42.7044 33.7395 43.1429 33.347C44.5416 32.0978 46.672 30.2146 47.4166 29.7532C48.5221 29.0732 49.3127 28.9424 49.5298 28.9194C50.0931 28.8642 50.6597 28.9836 51.1528 29.2615C51.1552 29.2861 51.1525 29.311 51.1448 29.3345C51.1372 29.358 51.1247 29.3797 51.1082 29.3981L50.8466 29.6468L50.8034 29.687C50.5144 29.975 50.2851 30.3174 50.1289 30.6944C49.9727 31.0714 49.8926 31.4756 49.8933 31.8836C49.894 32.2917 49.9754 32.6956 50.1328 33.0721C50.2902 33.4485 50.5206 33.7902 50.8106 34.0772L55.7356 38.9518C56.0242 39.2393 56.3669 39.4666 56.7439 39.6208C57.1209 39.7751 57.5248 39.853 57.9321 39.8503C58.75 39.8515 59.5358 39.5315 60.12 38.959L68.0982 31.0786C68.1255 31.0512 68.1529 31.0225 68.1787 30.9937C68.714 30.407 69.0073 29.6395 68.9999 28.8454C68.9924 28.0512 68.6847 27.2893 68.1385 26.7128Z" fill="#4E6D9F"/>
</svg>
