<svg width="69" height="69" viewBox="0 0 69 69" fill="none" xmlns="http://www.w3.org/2000/svg">
<g clip-path="url(#clip0_1008_276)">
<path d="M62.0998 34.2575L48.8748 23.62V16.375C48.9452 14.923 48.4369 13.5022 47.4614 12.4244C46.486 11.3465 45.1229 10.6994 43.671 10.625H10.896C9.4544 10.714 8.1059 11.3674 7.14265 12.4437C6.1794 13.5199 5.67897 14.9324 5.74977 16.375V45.125C5.72309 46.2667 6.03697 47.3904 6.6514 48.3531C7.26583 49.3157 8.15298 50.0735 9.19977 50.53C8.6703 51.8253 8.46394 53.23 8.59851 54.6229C8.73308 56.0158 9.20454 57.355 9.9722 58.525C10.7399 59.695 11.7807 60.6606 13.0048 61.3386C14.229 62.0166 15.5997 62.3865 16.9988 62.4165C18.3978 62.4465 19.7831 62.1356 21.0352 61.5107C22.2873 60.8858 23.3685 59.9656 24.1856 58.8295C25.0026 57.6935 25.531 56.3757 25.7252 54.9899C25.9193 53.6041 25.7733 52.1918 25.2998 50.875H43.5848C43.1119 52.1777 42.96 53.5753 43.1418 54.9492C43.3236 56.3231 43.8339 57.633 44.6293 58.7679C45.4247 59.9028 46.482 60.8293 47.7114 61.469C48.9409 62.1087 50.3064 62.4426 51.6923 62.4426C53.0782 62.4426 54.4437 62.1087 55.6731 61.469C56.9026 60.8293 57.9598 59.9028 58.7552 58.7679C59.5507 57.633 60.0609 56.3231 60.2427 54.9492C60.4245 53.5753 60.2726 52.1777 59.7998 50.875H60.3748C61.1373 50.875 61.8685 50.5721 62.4077 50.0329C62.9469 49.4938 63.2498 48.7625 63.2498 48V36.5C63.241 36.0634 63.1328 35.6346 62.9336 35.246C62.7343 34.8575 62.4492 34.5194 62.0998 34.2575ZM57.4998 37.88V45.125H48.8748V30.98L57.4998 37.88ZM20.1248 53.75C20.1248 54.3186 19.9562 54.8745 19.6402 55.3473C19.3243 55.8201 18.8753 56.1886 18.35 56.4062C17.8246 56.6238 17.2466 56.6807 16.6889 56.5698C16.1312 56.4588 15.6189 56.185 15.2168 55.7829C14.8148 55.3809 14.5409 54.8686 14.43 54.3109C14.3191 53.7532 14.376 53.1751 14.5936 52.6498C14.8112 52.1245 15.1797 51.6754 15.6525 51.3595C16.1253 51.0436 16.6812 50.875 17.2498 50.875C18.0123 50.875 18.7435 51.1779 19.2827 51.7171C19.8219 52.2562 20.1248 52.9875 20.1248 53.75ZM54.6248 53.75C54.6248 54.3186 54.4562 54.8745 54.1403 55.3473C53.8243 55.8201 53.3753 56.1886 52.85 56.4062C52.3246 56.6238 51.7466 56.6807 51.1889 56.5698C50.6312 56.4588 50.1189 56.185 49.7168 55.7829C49.3148 55.3809 49.0409 54.8686 48.93 54.3109C48.8191 53.7532 48.876 53.1751 49.0936 52.6498C49.3112 52.1245 49.6797 51.6754 50.1525 51.3595C50.6253 51.0436 51.1812 50.875 51.7498 50.875C52.5123 50.875 53.2435 51.1779 53.7827 51.7171C54.3219 52.2562 54.6248 52.9875 54.6248 53.75Z" fill="#74B1FA"/>
</g>
<defs>
<clipPath id="clip0_1008_276">
<rect width="69" height="69" fill="white"/>
</clipPath>
</defs>
</svg>
