<svg width="69" height="69" viewBox="0 0 69 69" fill="none" xmlns="http://www.w3.org/2000/svg">
<g clip-path="url(#clip0_1008_274)">
<path d="M34.5001 44.5625C31.8314 44.5625 29.272 43.5023 27.3849 41.6153C25.4978 39.7282 24.4376 37.1687 24.4376 34.5C24.4376 31.8313 25.4978 29.2718 27.3849 27.3847C29.272 25.4977 31.8314 24.4375 34.5001 24.4375C37.1689 24.4375 39.7283 25.4977 41.6154 27.3847C43.5025 29.2718 44.5626 31.8313 44.5626 34.5C44.5626 37.1687 43.5025 39.7282 41.6154 41.6153C39.7283 43.5023 37.1689 44.5625 34.5001 44.5625ZM55.8614 37.2888C55.9764 36.3688 56.0626 35.4488 56.0626 34.5C56.0626 33.5513 55.9764 32.6025 55.8614 31.625L61.9277 26.9388C62.4739 26.5075 62.6176 25.7313 62.2726 25.0988L56.5226 15.1513C56.1777 14.5188 55.4014 14.26 54.7689 14.5188L47.6101 17.3938C46.1151 16.2725 44.5626 15.295 42.7514 14.5763L41.6876 6.95751C41.6292 6.61888 41.4529 6.31186 41.1897 6.09084C40.9266 5.86982 40.5938 5.74908 40.2501 5.75001H28.7501C28.0314 5.75001 27.4276 6.26751 27.3126 6.95751L26.2489 14.5763C24.4376 15.295 22.8851 16.2725 21.3901 17.3938L14.2314 14.5188C13.5989 14.26 12.8226 14.5188 12.4776 15.1513L6.72765 25.0988C6.3539 25.7313 6.5264 26.5075 7.07265 26.9388L13.1389 31.625C13.0239 32.6025 12.9376 33.5513 12.9376 34.5C12.9376 35.4488 13.0239 36.3688 13.1389 37.2888L7.07265 42.0613C6.5264 42.4925 6.3539 43.2688 6.72765 43.9013L12.4776 53.8488C12.8226 54.4813 13.5989 54.7113 14.2314 54.4813L21.3901 51.5775C22.8851 52.7275 24.4376 53.705 26.2489 54.4238L27.3126 62.0425C27.4276 62.7325 28.0314 63.25 28.7501 63.25H40.2501C40.9689 63.25 41.5727 62.7325 41.6876 62.0425L42.7514 54.4238C44.5626 53.6763 46.1151 52.7275 47.6101 51.5775L54.7689 54.4813C55.4014 54.7113 56.1777 54.4813 56.5226 53.8488L62.2726 43.9013C62.6176 43.2688 62.4739 42.4925 61.9277 42.0613L55.8614 37.2888Z" fill="#2D2E4C"/>
</g>
<defs>
<clipPath id="clip0_1008_274">
<rect width="69" height="69" fill="white"/>
</clipPath>
</defs>
</svg>
