<svg width="46" height="52" viewBox="0 0 46 52" fill="none" xmlns="http://www.w3.org/2000/svg">
<g id="typcn:arrow-up-outline">
<path id="Vector" d="M22.8511 45.2032C19.7015 45.2032 17.1384 42.3059 17.1384 38.7456V28.491C14.9619 30.6952 11.3782 30.5983 9.29113 28.2434C8.22111 27.0319 7.62012 25.3899 7.62012 23.6779C7.62012 21.9659 8.22111 20.3239 9.29113 19.1124L22.8511 3.78418L36.411 19.1124C37.4811 20.3239 38.0821 21.9659 38.0821 23.6779C38.0821 25.3899 37.4811 27.0319 36.411 28.2434C34.3278 30.6004 30.7384 30.6973 28.5637 28.491V38.7456C28.5637 42.3059 26.0007 45.2032 22.8511 45.2032ZM20.9469 18.1114V38.7456C20.9688 39.2999 21.179 39.8232 21.5337 40.2066C21.8884 40.59 22.3603 40.804 22.8511 40.804C23.3419 40.804 23.8137 40.59 24.1685 40.2066C24.5232 39.8232 24.7334 39.2999 24.7553 38.7456V18.1114L31.0259 25.1997C31.3884 25.5916 31.8706 25.8102 32.3722 25.8102C32.8737 25.8102 33.356 25.5916 33.7185 25.1997C33.8955 25 34.0359 24.7628 34.1317 24.5017C34.2275 24.2405 34.2768 23.9606 34.2768 23.6779C34.2768 23.3952 34.2275 23.1153 34.1317 22.8541C34.0359 22.593 33.8955 22.3558 33.7185 22.1561L22.8511 9.87155L11.9837 22.1561C11.8067 22.3558 11.6663 22.593 11.5705 22.8541C11.4747 23.1153 11.4254 23.3952 11.4254 23.6779C11.4254 23.9606 11.4747 24.2405 11.5705 24.5017C11.6663 24.7628 11.8067 25 11.9837 25.1997C12.3462 25.5916 12.8284 25.8102 13.33 25.8102C13.8315 25.8102 14.3138 25.5916 14.6763 25.1997L20.9469 18.1114Z" fill="white"/>
</g>
</svg>
