<svg width="22" height="22" viewBox="0 0 22 22" fill="none" xmlns="http://www.w3.org/2000/svg">
<path d="M20.6 22L17.525 18.95C17.225 19.1333 16.9043 19.271 16.563 19.363C16.2217 19.455 15.8673 19.5007 15.5 19.5C14.4 19.5 13.4583 19.1083 12.675 18.325C11.8917 17.5417 11.5 16.6 11.5 15.5C11.5 14.4 11.8917 13.4583 12.675 12.675C13.4583 11.8917 14.4 11.5 15.5 11.5C16.6 11.5 17.5417 11.8917 18.325 12.675C19.1083 13.4583 19.5 14.4 19.5 15.5C19.5 15.8833 19.45 16.246 19.35 16.588C19.25 16.93 19.1083 17.2507 18.925 17.55L22 20.6L20.6 22ZM4.5 19.5C3.4 19.5 2.45833 19.1083 1.675 18.325C0.891667 17.5417 0.5 16.6 0.5 15.5C0.5 14.4 0.891667 13.4583 1.675 12.675C2.45833 11.8917 3.4 11.5 4.5 11.5C5.6 11.5 6.54167 11.8917 7.325 12.675C8.10833 13.4583 8.5 14.4 8.5 15.5C8.5 16.6 8.10833 17.5417 7.325 18.325C6.54167 19.1083 5.6 19.5 4.5 19.5ZM15.5 17.5C16.05 17.5 16.521 17.304 16.913 16.912C17.305 16.52 17.5007 16.0493 17.5 15.5C17.5 14.95 17.304 14.479 16.912 14.087C16.52 13.695 16.0493 13.4993 15.5 13.5C14.95 13.5 14.479 13.696 14.087 14.088C13.695 14.48 13.4993 14.9507 13.5 15.5C13.5 16.05 13.696 16.521 14.088 16.913C14.48 17.305 14.9507 17.5007 15.5 17.5ZM4.5 8.5C3.4 8.5 2.45833 8.10833 1.675 7.325C0.891667 6.54167 0.5 5.6 0.5 4.5C0.5 3.4 0.891667 2.45833 1.675 1.675C2.45833 0.891667 3.4 0.5 4.5 0.5C5.6 0.5 6.54167 0.891667 7.325 1.675C8.10833 2.45833 8.5 3.4 8.5 4.5C8.5 5.6 8.10833 6.54167 7.325 7.325C6.54167 8.10833 5.6 8.5 4.5 8.5ZM15.5 8.5C14.4 8.5 13.4583 8.10833 12.675 7.325C11.8917 6.54167 11.5 5.6 11.5 4.5C11.5 3.4 11.8917 2.45833 12.675 1.675C13.4583 0.891667 14.4 0.5 15.5 0.5C16.6 0.5 17.5417 0.891667 18.325 1.675C19.1083 2.45833 19.5 3.4 19.5 4.5C19.5 5.6 19.1083 6.54167 18.325 7.325C17.5417 8.10833 16.6 8.5 15.5 8.5Z" fill="black"/>
</svg>
